<svg xmlns="http://www.w3.org/2000/svg" viewBox="0 0 80 80" width="80" height="80">
  <defs>
    <linearGradient id="bg" x1="0%" y1="0%" x2="100%" y2="100%">
      <stop offset="0%" style="stop-color:#fff9c4"/>
      <stop offset="100%" style="stop-color:#ffe082"/>
    </linearGradient>
  </defs>
  <rect width="80" height="80" rx="12" fill="url(#bg)"/>
  <!-- Fluffy snowflakes (powder style) -->
  <!-- Big central snowflake -->
  <g stroke="#2e6da4" stroke-width="2.8" stroke-linecap="round">
    <line x1="40" y1="14" x2="40" y2="50"/>
    <line x1="20" y1="22" x2="60" y2="42"/>
    <line x1="60" y1="22" x2="20" y2="42"/>
    <!-- tips -->
    <line x1="40" y1="14" x2="35" y2="20"/>
    <line x1="40" y1="14" x2="45" y2="20"/>
    <line x1="40" y1="50" x2="35" y2="44"/>
    <line x1="40" y1="50" x2="45" y2="44"/>
    <line x1="20" y1="22" x2="23" y2="28"/>
    <line x1="20" y1="22" x2="26" y2="20"/>
    <line x1="60" y1="22" x2="57" y2="28"/>
    <line x1="60" y1="22" x2="54" y2="20"/>
    <line x1="20" y1="42" x2="23" y2="36"/>
    <line x1="20" y1="42" x2="26" y2="44"/>
    <line x1="60" y1="42" x2="57" y2="36"/>
    <line x1="60" y1="42" x2="54" y2="44"/>
  </g>
  <!-- Center dot -->
  <circle cx="40" cy="32" r="4" fill="#2e6da4"/>
  <!-- +5 badge -->
  <circle cx="40" cy="62" r="11" fill="#4caf50"/>
  <text x="40" y="67" text-anchor="middle" font-size="13" font-family="sans-serif" font-weight="900" fill="#fff">+5</text>
  <!-- Label -->
  <text x="40" y="78" text-anchor="middle" font-size="7" font-family="sans-serif" font-weight="700" fill="#5d4037" letter-spacing="0.2">PULVERSCHNEE</text>
</svg>
