<svg xmlns="http://www.w3.org/2000/svg" viewBox="0 0 80 80" width="80" height="80">
  <defs>
    <linearGradient id="bg" x1="0%" y1="0%" x2="100%" y2="100%">
      <stop offset="0%" style="stop-color:#e8f0fe"/>
      <stop offset="100%" style="stop-color:#c5d8f8"/>
    </linearGradient>
  </defs>
  <rect width="80" height="80" rx="12" fill="url(#bg)"/>
  <!-- Main cable -->
  <line x1="6" y1="20" x2="74" y2="20" stroke="#1a3a5c" stroke-width="2.5" stroke-linecap="round"/>
  <!-- Hanger -->
  <line x1="40" y1="20" x2="40" y2="30" stroke="#1a3a5c" stroke-width="2" stroke-linecap="round"/>
  <!-- Chair seat -->
  <rect x="24" y="30" width="32" height="12" rx="4" fill="#2e6da4"/>
  <!-- Chair back -->
  <rect x="24" y="24" width="32" height="8" rx="3" fill="#1a3a5c"/>
  <!-- Safety bar -->
  <path d="M26 42 L26 50 L54 50 L54 42" fill="none" stroke="#1a3a5c" stroke-width="2.5" stroke-linecap="round" stroke-linejoin="round"/>
  <!-- Two seated figures (simplified) -->
  <!-- Person 1 -->
  <circle cx="32" cy="28" r="4" fill="#fff"/>
  <rect x="29" y="32" width="6" height="8" rx="2" fill="#fff" opacity="0.8"/>
  <!-- Person 2 -->
  <circle cx="48" cy="28" r="4" fill="#fff"/>
  <rect x="45" y="32" width="6" height="8" rx="2" fill="#fff" opacity="0.8"/>
  <!-- Dangling skis -->
  <line x1="29" y1="50" x2="25" y2="62" stroke="#1a3a5c" stroke-width="2" stroke-linecap="round"/>
  <line x1="33" y1="50" x2="29" y2="62" stroke="#1a3a5c" stroke-width="2" stroke-linecap="round"/>
  <line x1="47" y1="50" x2="43" y2="62" stroke="#1a3a5c" stroke-width="2" stroke-linecap="round"/>
  <line x1="51" y1="50" x2="47" y2="62" stroke="#1a3a5c" stroke-width="2" stroke-linecap="round"/>
  <!-- Label -->
  <text x="40" y="75" text-anchor="middle" font-size="7" font-family="sans-serif" font-weight="700" fill="#1a3a5c" letter-spacing="0.3">SESSELBAHN</text>
</svg>
