<svg xmlns="http://www.w3.org/2000/svg" viewBox="0 0 80 80" width="80" height="80">
  <defs>
    <linearGradient id="bg" x1="0%" y1="0%" x2="100%" y2="100%">
      <stop offset="0%" style="stop-color:#e8f0fe"/>
      <stop offset="100%" style="stop-color:#c5d8f8"/>
    </linearGradient>
  </defs>
  <rect width="80" height="80" rx="12" fill="url(#bg)"/>
  <!-- Track rails -->
  <line x1="6" y1="66" x2="74" y2="66" stroke="#1a3a5c" stroke-width="2.5" stroke-linecap="round"/>
  <line x1="6" y1="60" x2="74" y2="60" stroke="#1a3a5c" stroke-width="2.5" stroke-linecap="round"/>
  <!-- Sleepers -->
  <line x1="14" y1="59" x2="14" y2="67" stroke="#1a3a5c" stroke-width="2" stroke-linecap="round"/>
  <line x1="26" y1="59" x2="26" y2="67" stroke="#1a3a5c" stroke-width="2" stroke-linecap="round"/>
  <line x1="38" y1="59" x2="38" y2="67" stroke="#1a3a5c" stroke-width="2" stroke-linecap="round"/>
  <line x1="50" y1="59" x2="50" y2="67" stroke="#1a3a5c" stroke-width="2" stroke-linecap="round"/>
  <line x1="62" y1="59" x2="62" y2="67" stroke="#1a3a5c" stroke-width="2" stroke-linecap="round"/>
  <!-- Train body -->
  <rect x="10" y="30" width="54" height="28" rx="6" fill="#2e6da4"/>
  <!-- Front cab roof bump -->
  <rect x="48" y="22" width="16" height="12" rx="4" fill="#1a3a5c"/>
  <!-- Windows: passenger car -->
  <rect x="13" y="34" width="10" height="10" rx="2" fill="#cfe4ff"/>
  <rect x="26" y="34" width="10" height="10" rx="2" fill="#cfe4ff"/>
  <rect x="39" y="34" width="7" height="10" rx="2" fill="#cfe4ff"/>
  <!-- Cab window -->
  <rect x="50" y="26" width="11" height="7" rx="2" fill="#cfe4ff"/>
  <!-- Front light -->
  <circle cx="64" cy="50" r="3" fill="#fff9c4" stroke="#1a3a5c" stroke-width="1"/>
  <!-- Wheels -->
  <circle cx="22" cy="58" r="5" fill="#1a3a5c"/>
  <circle cx="22" cy="58" r="2.5" fill="#2e6da4"/>
  <circle cx="42" cy="58" r="5" fill="#1a3a5c"/>
  <circle cx="42" cy="58" r="2.5" fill="#2e6da4"/>
  <circle cx="60" cy="58" r="5" fill="#1a3a5c"/>
  <circle cx="60" cy="58" r="2.5" fill="#2e6da4"/>
  <!-- Label -->
  <text x="40" y="77" text-anchor="middle" font-size="8" font-family="sans-serif" font-weight="700" fill="#1a3a5c" letter-spacing="0.3">ZUG / BUS</text>
</svg>
